<?xml version="1.0" encoding="UTF-8" standalone="no"?>
<!DOCTYPE svg PUBLIC "-//W3C//DTD SVG 1.1//EN"
 "http://www.w3.org/Graphics/SVG/1.1/DTD/svg11.dtd">
<!-- Generated by graphviz version 2.38.0 (20140413.2041)
 -->
<!-- Title: G Pages: 1 -->
<svg width="344pt" height="714pt"
 viewBox="0.00 0.00 344.39 714.00" xmlns="http://www.w3.org/2000/svg" xmlns:xlink="http://www.w3.org/1999/xlink">
<g id="graph0" class="graph" transform="scale(1 1) rotate(0) translate(4 710)">
<title>G</title>
<polygon fill="white" stroke="none" points="-4,4 -4,-710 340.391,-710 340.391,4 -4,4"/>
<g id="clust1" class="cluster"><title>cluster_Global</title>
<path fill="none" stroke="gray" d="M161.391,-8C161.391,-8 316.391,-8 316.391,-8 322.391,-8 328.391,-14 328.391,-20 328.391,-20 328.391,-686 328.391,-686 328.391,-692 322.391,-698 316.391,-698 316.391,-698 161.391,-698 161.391,-698 155.391,-698 149.391,-692 149.391,-686 149.391,-686 149.391,-20 149.391,-20 149.391,-14 155.391,-8 161.391,-8"/>
<text text-anchor="middle" x="238.891" y="-685.2" font-family="Times,serif" font-size="11.00" fill="gray">Global</text>
</g>
<g id="clust2" class="cluster"><title>cluster_\elusive</title>
<path fill="none" stroke="gray" d="M169.391,-132C169.391,-132 308.391,-132 308.391,-132 314.391,-132 320.391,-138 320.391,-144 320.391,-144 320.391,-658 320.391,-658 320.391,-664 314.391,-670 308.391,-670 308.391,-670 169.391,-670 169.391,-670 163.391,-670 157.391,-664 157.391,-658 157.391,-658 157.391,-144 157.391,-144 157.391,-138 163.391,-132 169.391,-132"/>
<text text-anchor="middle" x="238.891" y="-657.2" font-family="Times,serif" font-size="11.00" fill="gray">elusive</text>
</g>
<g id="clust3" class="cluster"><title>cluster_\elusive\core</title>
<path fill="none" stroke="gray" d="M197.391,-462C197.391,-462 280.391,-462 280.391,-462 286.391,-462 292.391,-468 292.391,-474 292.391,-474 292.391,-630 292.391,-630 292.391,-636 286.391,-642 280.391,-642 280.391,-642 197.391,-642 197.391,-642 191.391,-642 185.391,-636 185.391,-630 185.391,-630 185.391,-474 185.391,-474 185.391,-468 191.391,-462 197.391,-462"/>
<text text-anchor="middle" x="238.891" y="-629.2" font-family="Times,serif" font-size="11.00" fill="gray">core</text>
</g>
<g id="clust4" class="cluster"><title>cluster_\elusive\lib</title>
<path fill="none" stroke="gray" d="M214.391,-328C214.391,-328 263.391,-328 263.391,-328 269.391,-328 275.391,-334 275.391,-340 275.391,-340 275.391,-442 275.391,-442 275.391,-448 269.391,-454 263.391,-454 263.391,-454 214.391,-454 214.391,-454 208.391,-454 202.391,-448 202.391,-442 202.391,-442 202.391,-340 202.391,-340 202.391,-334 208.391,-328 214.391,-328"/>
<text text-anchor="middle" x="238.891" y="-441.2" font-family="Times,serif" font-size="11.00" fill="gray">lib</text>
</g>
<g id="clust5" class="cluster"><title>cluster_\elusive\debug</title>
<path fill="none" stroke="gray" d="M177.391,-140C177.391,-140 300.391,-140 300.391,-140 306.391,-140 312.391,-146 312.391,-152 312.391,-152 312.391,-308 312.391,-308 312.391,-314 306.391,-320 300.391,-320 300.391,-320 177.391,-320 177.391,-320 171.391,-320 165.391,-314 165.391,-308 165.391,-308 165.391,-152 165.391,-152 165.391,-146 171.391,-140 177.391,-140"/>
<text text-anchor="middle" x="238.891" y="-307.2" font-family="Times,serif" font-size="11.00" fill="gray">debug</text>
</g>
<g id="clust6" class="cluster"><title>cluster_\app</title>
<path fill="none" stroke="gray" d="M202.891,-16C202.891,-16 274.891,-16 274.891,-16 280.891,-16 286.891,-22 286.891,-28 286.891,-28 286.891,-112 286.891,-112 286.891,-118 280.891,-124 274.891,-124 274.891,-124 202.891,-124 202.891,-124 196.891,-124 190.891,-118 190.891,-112 190.891,-112 190.891,-28 190.891,-28 190.891,-22 196.891,-16 202.891,-16"/>
<text text-anchor="middle" x="238.891" y="-111.2" font-family="Times,serif" font-size="11.00" fill="gray">app</text>
</g>
<g id="clust7" class="cluster"><title>cluster_\app\controllers</title>
<path fill="none" stroke="gray" d="M210.891,-24C210.891,-24 266.891,-24 266.891,-24 272.891,-24 278.891,-30 278.891,-36 278.891,-36 278.891,-84 278.891,-84 278.891,-90 272.891,-96 266.891,-96 266.891,-96 210.891,-96 210.891,-96 204.891,-96 198.891,-90 198.891,-84 198.891,-84 198.891,-36 198.891,-36 198.891,-30 204.891,-24 210.891,-24"/>
<text text-anchor="middle" x="238.891" y="-83.2" font-family="Times,serif" font-size="11.00" fill="gray">controllers</text>
</g>
<!-- \\elusive\\core\\Request -->
<g id="node1" class="node"><title>\\elusive\\core\\Request</title>
<polygon fill="none" stroke="black" points="270.891,-614 206.891,-614 206.891,-578 270.891,-578 270.891,-614"/>
<text text-anchor="middle" x="238.891" y="-593.2" font-family="Courier,monospace" font-size="11.00">Request</text>
</g>
<!-- \\elusive\\core\\Application -->
<g id="node2" class="node"><title>\\elusive\\core\\Application</title>
<polygon fill="none" stroke="black" points="284.391,-560 193.391,-560 193.391,-524 284.391,-524 284.391,-560"/>
<text text-anchor="middle" x="238.891" y="-539.2" font-family="Courier,monospace" font-size="11.00">Application</text>
</g>
<!-- \\elusive\\core\\Elusive -->
<g id="node3" class="node"><title>\\elusive\\core\\Elusive</title>
<polygon fill="none" stroke="black" points="270.891,-506 206.891,-506 206.891,-470 270.891,-470 270.891,-506"/>
<text text-anchor="middle" x="238.891" y="-485.2" font-family="Courier,monospace" font-size="11.00">Elusive</text>
</g>
<!-- \\elusive\\lib\\Timer -->
<g id="node4" class="node"><title>\\elusive\\lib\\Timer</title>
<polygon fill="none" stroke="black" points="265.891,-426 211.891,-426 211.891,-390 265.891,-390 265.891,-426"/>
<text text-anchor="middle" x="238.891" y="-405.2" font-family="Courier,monospace" font-size="11.00">Timer</text>
</g>
<!-- \\elusive\\lib\\Events -->
<g id="node5" class="node"><title>\\elusive\\lib\\Events</title>
<polygon fill="none" stroke="black" points="267.391,-372 210.391,-372 210.391,-336 267.391,-336 267.391,-372"/>
<text text-anchor="middle" x="238.891" y="-351.2" font-family="Courier,monospace" font-size="11.00">Events</text>
</g>
<!-- \\elusive\\debug\\Debug -->
<g id="node6" class="node"><title>\\elusive\\debug\\Debug</title>
<polygon fill="none" stroke="black" points="265.891,-292 211.891,-292 211.891,-256 265.891,-256 265.891,-292"/>
<text text-anchor="middle" x="238.891" y="-271.2" font-family="Courier,monospace" font-size="11.00">Debug</text>
</g>
<!-- \\elusive\\debug\\Elusive_Exception -->
<g id="node7" class="node"><title>\\elusive\\debug\\Elusive_Exception</title>
<polygon fill="none" stroke="black" points="304.391,-238 173.391,-238 173.391,-202 304.391,-202 304.391,-238"/>
<text text-anchor="middle" x="238.891" y="-217.2" font-family="Courier,monospace" font-size="11.00">Elusive_Exception</text>
</g>
<!-- \\Exception -->
<g id="node10" class="node"><title>\\Exception</title>
<ellipse fill="none" stroke="black" cx="50.6955" cy="-220" rx="50.8918" ry="18"/>
<text text-anchor="middle" x="50.6955" y="-216.3" font-family="Times,serif" font-size="14.00" fill="gray">\Exception</text>
</g>
<!-- \\elusive\\debug\\Elusive_Exception&#45;&gt;\\Exception -->
<g id="edge1" class="edge"><title>\\elusive\\debug\\Elusive_Exception&#45;&gt;\\Exception</title>
<path fill="none" stroke="black" d="M173.291,-220C153.256,-220 131.272,-220 111.572,-220"/>
<polygon fill="none" stroke="black" points="111.501,-216.5 101.501,-220 111.501,-223.5 111.501,-216.5"/>
</g>
<!-- \\elusive\\debug\\View -->
<g id="node8" class="node"><title>\\elusive\\debug\\View</title>
<polygon fill="none" stroke="black" points="265.891,-184 211.891,-184 211.891,-148 265.891,-148 265.891,-184"/>
<text text-anchor="middle" x="238.891" y="-163.2" font-family="Courier,monospace" font-size="11.00">View</text>
</g>
<!-- \\app\\controllers\\Primary -->
<g id="node9" class="node"><title>\\app\\controllers\\Primary</title>
<polygon fill="none" stroke="black" points="270.891,-68 206.891,-68 206.891,-32 270.891,-32 270.891,-68"/>
<text text-anchor="middle" x="238.891" y="-47.2" font-family="Courier,monospace" font-size="11.00">Primary</text>
</g>
</g>
</svg>
